:SAMPLES-PER-SECOND 30
:FRAME-RANGE 1-4244
:FULLY-SPECIFIED
:DEGREES
664
root  -59.0605 38.3187 6.64883 78.5806 89.0301 75.798
RightUpLeg  -14.5785 -13.179 -10.1166
RightLeg  25.0726 -6.1515 -3.35984
RightFoot  -10.9124 -0.127994 14.2268
RightToes  -3.31784e-009 0 -3.6325e-017
Spine  16.8633 0.19984 7.4121
Spine1  2.56441 2.14441 -4.42266
HEad  -11.0177 18.1644 -12.9623
LeftShoulder1  1.46636 -0.404389 -31.4695
LeftArm  -4.08158 7.93268 -31.7764
LeftForeArm  40.888 -64.1718 -19.2863
LeftHand  -0.0711128 -1.40022 1.35279
RightShoulder  9.56802 15.4422 44.0705
RightArm  16.6319 5.49295 16.7797
RightForeArm  24.8031 63.9515 21.1074
RightHand  0.387181 3.68013 4.69526
LeftUpLeg  -21.2698 9.96051 2.22811
LeftLeg  28.4015 -4.57898 -2.34246
LeftFoot  -7.97223 0.145976 -3.33699
LeftToes  1.0277e-010 -6.71454e-011 3.04227e-011
665
root  -58.4678 38.0514 7.14302 129.525 89.185 127.546
RightUpLeg  -13.9261 -14.7905 -9.60102
RightLeg  28.1686 -4.83267 -3.04154
RightFoot  -13.6571 0.185708 13.7345
RightToes  -3.31784e-009 0 -3.6325e-017
Spine  16.6499 0.0631901 8.22738
Spine1  3.06615 1.92045 -3.29266
HEad  -10.6084 17.5506 -13.2246
LeftShoulder1  1.39624 -0.191947 -31.727
LeftArm  -4.32673 11.2105 -32.378
LeftForeArm  41.14 -64.5051 -19.597
LeftHand  -0.0666739 -1.28253 1.28819
RightShoulder  8.82149 13.5845 45.1175
RightArm  18.4634 3.49872 17.0603
RightForeArm  22.4141 61.4834 18.9439
RightHand  0.361405 3.7132 4.34776
LeftUpLeg  -23.149 9.60672 3.54985
LeftLeg  34.8187 -3.32197 -2.12834
LeftFoot  -7.59904 0.239853 -5.94511
LeftToes  1.0277e-010 -6.71454e-011 3.04227e-011
666
root  -57.8529 37.8398 7.59718 165.343 88.2432 163.947
RightUpLeg  -12.9419 -15.328 -9.1985
RightLeg  30.4802 -5.02997 -3.44289
RightFoot  -16.0742 0.454109 13.5808
RightToes  -3.31784e-009 0 -3.6325e-017
Spine  16.1527 -0.102598 8.62659
Spine1  3.5453 1.52322 -1.95361
HEad  -10.4237 16.67 -13.0189
LeftShoulder1  1.35339 -0.0853815 -31.653
LeftArm  -4.9437 13.4336 -33.2482
LeftForeArm  41.0482 -63.7596 -18.8572
LeftHand  -0.0440931 -1.62537 0.879833
RightShoulder  8.09671 11.7312 46.511
RightArm  19.3094 1.93498 16.7217
RightForeArm  22.41 59.273 17.1036
RightHand  0.355576 4.00503 4.12025
LeftUpLeg  -26.0022 9.80071 4.49877
LeftLeg  41.7137 -2.22616 -1.74449
LeftFoot  -4.67162 0.604049 -9.86907
LeftToes  1.0277e-010 -6.71454e-011 3.04227e-011
667
root  -57.1962 37.7561 7.97642 170.494 86.8973 169.76
RightUpLeg  -11.0372 -15.898 -9.17759
RightLeg  31.3395 -5.47482 -3.84459
RightFoot  -17.8646 0.664858 13.7424
RightToes  -3.31784e-009 0 -3.6325e-017
Spine  15.7118 -0.386842 8.90012
Spine1  3.90333 1.10691 -1.18925
HEad  -10.0126 15.9266 -12.5917
LeftShoulder1  1.33291 -0.0426072 -31.5293
LeftArm  -4.21799 14.6186 -33.2551
LeftForeArm  40.0604 -62.8758 -18.1407
LeftHand  -0.0529112 -1.534 1.03184
RightShoulder  7.38129 10.1078 47.4908
RightArm  19.7218 0.335359 16.8259
RightForeArm  20.4614 57.7385 16.1792
RightHand  0.331687 3.98633 3.83459
LeftUpLeg  -28.4498 10.0573 4.71997
LeftLeg  46.7244 -0.758538 -0.453409
LeftFoot  0.830065 1.03649 -9.7528
LeftToes  1.0277e-010 -6.71454e-011 3.04227e-011
668
root  -56.4933 37.7715 8.24264 170.826 85.6903 170.357
RightUpLeg  -8.90421 -16.9745 -9.41293
RightLeg  30.8971 -5.52643 -3.81795
RightFoot  -19.0556 0.814338 13.9416
RightToes  -3.31784e-009 0 -3.6325e-017
Spine  15.1367 -0.531036 9.25091
Spine1  3.70161 0.863068 -0.83286
HEad  -9.02662 15.4585 -12.2482
LeftShoulder1  1.341 -0.0554231 -31.6218
LeftArm  -3.96564 15.1046 -33.2586
LeftForeArm  40.1094 -61.7082 -17.1192
LeftHand  -0.0479174 -1.83609 0.933975
RightShoulder  6.53326 8.51838 47.6025
RightArm  20.1053 -1.45644 17.5106
RightForeArm  18.2955 57.4447 16.1896
RightHand  0.300595 3.61714 3.61869
LeftUpLeg  -30.337 11.2915 4.21381
LeftLeg  48.5749 -0.85407 -0.616472
LeftFoot  2.64229 0.752924 -6.26708
LeftToes  1.0277e-010 -6.71454e-011 3.04227e-011
669
root  -55.8016 38.0146 8.50579 165.501 84.7318 164.865
RightUpLeg  -6.43546 -17.4891 -9.9091
RightLeg  28.4053 -6.01782 -3.76343
RightFoot  -19.0277 0.815202 14.0017
RightToes  -3.31784e-009 0 -3.6325e-017
Spine  14.7175 -0.437087 8.76347
Spine1  3.19809 0.848487 -1.14634
HEad  -8.294 14.986 -11.956
LeftShoulder1  1.31616 0.00939236 -31.6089
LeftArm  -3.28938 15.1474 -32.9111
LeftForeArm  40.0705 -61.4283 -16.8934
LeftHand  -0.0615739 -1.74777 1.16096
RightShoulder  5.94941 7.45435 47.5629
RightArm  20.2549 -3.10311 17.9705
RightForeArm  18.3599 57.9663 16.551
RightHand  0.285051 3.51462 3.46557
LeftUpLeg  -31.6099 12.9392 2.89531
LeftLeg  46.7051 -1.03649 -0.769965
LeftFoot  0.573144 0.720368 -6.93252
LeftToes  1.0277e-010 -6.71454e-011 3.04227e-011
